<svg id="layer_1" data-name="layer_1" xmlns="http://www.w3.org/2000/svg" viewBox="0 0 783.18 245.32">
    <defs>
        <style>
            .cls-1,
            .cls-10,
            .cls-11,
            .cls-4,
            .cls-5,
            .cls-6,
            .cls-8 {
                fill: #2fa9bb;
            }

            .cls-2,
            .cls-26,
            .cls-28,
            .cls-29,
            .cls-30,
            .cls-31,
            .cls-33 {
                fill: none;
            }

            .cls-2 {
                stroke: #2fa9bb;
            }

            .cls-2,
            .cls-26,
            .cls-28,
            .cls-29,
            .cls-30,
            .cls-31 {
                stroke-miterlimit: 10;
            }

            .cls-3 {
                fill: #4aaad7;
            }

            .cls-4,
            .cls-7 {
                opacity: 0.61;
            }

            .cls-5 {
                opacity: 0.4;
            }

            .cls-6,
            .cls-9 {
                opacity: 0.24;
            }

            .cls-12,
            .cls-13,
            .cls-14,
            .cls-7,
            .cls-9 {
                fill: #45aebf;
            }

            .cls-8 {
                opacity: 0.47;
            }

            .cls-10,
            .cls-14 {
                opacity: 0.31;
            }

            .cls-11 {
                opacity: 0.18;
            }

            .cls-12 {
                opacity: 0.25;
            }

            .cls-13 {
                opacity: 0.38;
            }

            .cls-15 {
                fill: #ededed;
            }

            .cls-16 {
                fill: #f8c1b9;
            }

            .cls-17 {
                fill: #98b4d0;
            }

            .cls-18 {
                fill: #86a0b7;
            }

            .cls-19 {
                fill: #1d71b8;
            }

            .cls-20 {
                fill: #7993a4;
            }

            .cls-21 {
                fill: #f2a976;
            }

            .cls-22 {
                fill: #706f6f;
            }

            .cls-23 {
                fill: #f7bab4;
            }

            .cls-24 {
                fill: #f9bc8c;
            }

            .cls-25 {
                fill: #f4c3c1;
            }

            .cls-26,
            .cls-30 {
                stroke: #d6aaaa;
            }

            .cls-27 {
                fill: #29235c;
            }

            .cls-28,
            .cls-29,
            .cls-31 {
                stroke: #29235c;
            }

            .cls-28,
            .cls-30,
            .cls-31 {
                stroke-linecap: round;
            }

            .cls-28,
            .cls-29 {
                stroke-width: 2px;
            }

            .cls-32 {
                fill: #f7c077;
            }

            .cls-34 {
                fill: #21767c;
            }
        </style>
    </defs>
    <title>Чтобы поверить в добро, надо делать его.</title>
    <path class="cls-1"
        d="M345.8,151.46c1.18.12,2.16-1.16,4.08-3.71,2.63-3.51,3.94-5.26,4.25-7.6.47-3.45-1.16-6.12-3.44-9.86-1-1.67-4-6.49-5.69-5.93-1.11.35-.44,2.5-1.74,6.17-1.74,4.94-4.51,5.47-4.42,8.67,0,1,.27,1,2.74,5.7C344.29,150.07,344.68,151.34,345.8,151.46Z"
        transform="translate(-12.2 -4.4)" />
    <path class="cls-2" d="M348.67,148.94a227.25,227.25,0,0,1-14.07,24.39,231.11,231.11,0,0,1-39.09,45"
        transform="translate(-12.2 -4.4)" />
    <path class="cls-2" d="M83.19,145.5a135.76,135.76,0,0,0,46.59,66.29" transform="translate(-12.2 -4.4)" />
    <path class="cls-1"
        d="M338,167.36c1.14-.34,1.56-1.9,2.35-5,1.08-4.25,1.63-6.37,1-8.65-.89-3.36-3.42-5.2-7-7.79-1.58-1.15-6.14-4.48-7.52-3.3-.89.75.55,2.48.76,6.37.27,5.22-2.08,6.78-.77,9.7.39.86.63.8,4.72,4.22C336.08,166.66,336.93,167.68,338,167.36Z"
        transform="translate(-12.2 -4.4)" />
    <path class="cls-1"
        d="M338.89,167.54c-.32-1.14.77-2.32,3-4.64,3-3.19,4.52-4.79,6.77-5.49,3.32-1,6.23.11,10.3,1.72,1.82.73,7.07,2.8,6.81,4.6-.16,1.15-2.39.86-5.79,2.76-4.56,2.56-4.62,5.38-7.79,5.83-.94.14-1-.1-6.08-1.73C340.51,168.8,339.19,168.63,338.89,167.54Z"
        transform="translate(-12.2 -4.4)" />
    <path class="cls-1"
        d="M325.44,186.51c-.32-1.14.77-2.33,3-4.64,3-3.19,4.52-4.79,6.76-5.49,3.33-1,6.23.11,10.31,1.72,1.82.72,7.06,2.8,6.81,4.6-.16,1.15-2.39.86-5.79,2.76-4.57,2.56-4.62,5.38-7.79,5.83-.94.13-1-.1-6.09-1.74C327.06,187.77,325.74,187.6,325.44,186.51Z"
        transform="translate(-12.2 -4.4)" />
    <path class="cls-1"
        d="M310.13,204.38c-.08-1.18,1.23-2.11,3.85-3.93,3.6-2.51,5.4-3.76,7.74-4,3.47-.34,6.08,1.39,9.73,3.8,1.64,1.08,6.35,4.19,5.73,5.9-.39,1.09-2.52.35-6.23,1.51-5,1.57-5.63,4.32-8.82,4.11-.95-.06-1-.31-5.6-2.95C311.46,206,310.2,205.51,310.13,204.38Z"
        transform="translate(-12.2 -4.4)" />
    <path class="cls-1"
        d="M326.52,186.87c1.11-.44,1.39-2,1.91-5.17.72-4.33,1.08-6.49.28-8.71-1.18-3.27-3.85-4.89-7.6-7.16-1.68-1-6.51-3.93-7.79-2.64-.82.82.77,2.42,1.31,6.27.72,5.19-1.49,6.94.07,9.74.46.83.69.74,5.06,3.79C324.54,186.33,325.48,187.28,326.52,186.87Z"
        transform="translate(-12.2 -4.4)" />
    <path class="cls-3"
        d="M311.77,203.28c1.11-.44,1.39-2,1.91-5.17.72-4.33,1.08-6.49.28-8.71-1.18-3.27-3.85-4.89-7.6-7.16-1.68-1-6.51-3.93-7.79-2.64-.82.82.77,2.42,1.31,6.28.72,5.18-1.49,6.93.07,9.73.46.83.69.74,5.06,3.79C309.79,202.74,310.73,203.69,311.77,203.28Z"
        transform="translate(-12.2 -4.4)" />
    <path class="cls-1"
        d="M81.92,147.53c-1.18.12-2.16-1.15-4.07-3.7-2.63-3.51-3.95-5.27-4.26-7.6-.46-3.45,1.17-6.12,3.45-9.86,1-1.68,4-6.49,5.69-5.94,1.11.36.44,2.51,1.73,6.18,1.75,4.93,4.52,5.47,4.43,8.67,0,.95-.28,1-2.75,5.7C83.44,146.15,83.05,147.42,81.92,147.53Z"
        transform="translate(-12.2 -4.4)" />
    <path class="cls-1"
        d="M89.71,163.43c-1.13-.34-1.55-1.89-2.34-5-1.09-4.25-1.63-6.37-1-8.65.89-3.37,3.42-5.21,7-7.79,1.59-1.16,6.14-4.48,7.53-3.3.89.75-.55,2.48-.76,6.36-.28,5.23,2.08,6.78.77,9.71-.39.86-.63.8-4.72,4.21C91.64,162.73,90.79,163.76,89.71,163.43Z"
        transform="translate(-12.2 -4.4)" />
    <path class="cls-1"
        d="M88.83,163.62c.32-1.14-.77-2.33-3-4.65-3-3.18-4.51-4.78-6.76-5.48-3.32-1.05-6.23.11-10.3,1.72-1.83.72-7.07,2.8-6.82,4.6.16,1.15,2.4.86,5.79,2.76,4.57,2.56,4.62,5.38,7.79,5.83.94.13,1-.1,6.09-1.74C87.21,164.88,88.53,164.71,88.83,163.62Z"
        transform="translate(-12.2 -4.4)" />
    <path class="cls-1"
        d="M102.29,182.59c.31-1.15-.77-2.33-3-4.65-3-3.19-4.52-4.78-6.77-5.49-3.32-1-6.23.11-10.3,1.73-1.83.72-7.07,2.8-6.82,4.6.17,1.15,2.4.86,5.79,2.76,4.57,2.55,4.63,5.37,7.8,5.83.94.13,1-.11,6.08-1.74C100.66,183.84,102,183.67,102.29,182.59Z"
        transform="translate(-12.2 -4.4)" />
    <path class="cls-1"
        d="M117.6,200.46c.07-1.18-1.23-2.12-3.85-3.94-3.6-2.5-5.41-3.75-7.75-4-3.46-.34-6.07,1.38-9.73,3.8-1.64,1.08-6.34,4.19-5.73,5.9.4,1.09,2.52.35,6.24,1.51,5,1.57,5.62,4.32,8.82,4.11,1-.06,1-.31,5.6-3C116.27,202,117.52,201.59,117.6,200.46Z"
        transform="translate(-12.2 -4.4)" />
    <path class="cls-1"
        d="M101.2,182.94c-1.1-.44-1.39-2-1.91-5.16-.71-4.33-1.07-6.49-.28-8.71,1.18-3.28,3.86-4.89,7.61-7.16,1.68-1,6.5-3.94,7.78-2.65.82.83-.76,2.43-1.3,6.28-.73,5.19,1.49,6.94-.07,9.73-.46.83-.7.75-5.07,3.8C103.18,182.41,102.25,183.36,101.2,182.94Z"
        transform="translate(-12.2 -4.4)" />
    <path class="cls-1"
        d="M116,199.35c-1.1-.43-1.39-2-1.91-5.16-.72-4.33-1.07-6.49-.28-8.71,1.18-3.28,3.86-4.89,7.61-7.16,1.68-1,6.5-3.94,7.78-2.65.82.83-.76,2.43-1.3,6.28-.73,5.19,1.48,6.94-.07,9.73-.47.83-.7.75-5.07,3.8C117.93,198.82,117,199.77,116,199.35Z"
        transform="translate(-12.2 -4.4)" />
    <path class="cls-2" d="M295.83,221.49a145.25,145.25,0,0,0,62.22-13.14" transform="translate(-12.2 -4.4)" />
    <path class="cls-1"
        d="M373.55,197.59c-.28-.36-.72-.6-4-.9a37.44,37.44,0,0,0-4-.27,17.54,17.54,0,0,0-6.2,1.31c-4.56,2.1-9.06,9.45-6.21,14.05,2.17,3.5,7.92,4.31,11.72,2.66,3.05-1.33,4.63-4.16,6.15-6.87a23.63,23.63,0,0,0,2.14-5.65C374.12,198.71,373.87,198,373.55,197.59Z"
        transform="translate(-12.2 -4.4)" />
    <path class="cls-1"
        d="M341.89,195c-.38-.09-.8,0-3.13,1.51a32.14,32.14,0,0,0-2.79,1.94,14.92,14.92,0,0,0-3.44,4.15c-1.92,3.82-1,11.1,3.31,12.65,3.31,1.18,7.57-1.32,9.22-4.44,1.33-2.5.88-5.23.45-7.84a19.42,19.42,0,0,0-1.57-4.89C342.86,195.41,342.31,195.07,341.89,195Z"
        transform="translate(-12.2 -4.4)" />
    <path class="cls-1"
        d="M317.39,199.38c-.38,0-.75.25-2.45,2.46a28.18,28.18,0,0,0-2,2.74,14.76,14.76,0,0,0-1.88,5.06c-.56,4.24,2.68,10.81,7.28,10.85,3.51,0,6.71-3.73,7.25-7.22.43-2.8-.89-5.23-2.15-7.55a20.42,20.42,0,0,0-3.1-4.11C318.46,199.48,317.83,199.33,317.39,199.38Z"
        transform="translate(-12.2 -4.4)" />
    <path class="cls-1"
        d="M352.52,230.13c-.23.31-.59.53-3.36.9-1.78.23-2.67.35-3.38.36a14.73,14.73,0,0,1-5.31-.91c-4-1.63-8-7.73-5.76-11.73,1.73-3.06,6.59-3.94,9.88-2.66,2.64,1,4.08,3.38,5.47,5.63a20.23,20.23,0,0,1,2,4.74C353,229.16,352.77,229.78,352.52,230.13Z"
        transform="translate(-12.2 -4.4)" />
    <path class="cls-1"
        d="M328.55,238.68c-.32.22-.73.3-3.46-.26a32,32,0,0,1-3.31-.78,14.85,14.85,0,0,1-4.72-2.61c-3.19-2.85-5-9.95-1.55-13,2.63-2.31,7.52-1.54,10.2.76,2.15,1.84,2.73,4.53,3.3,7.12a20.68,20.68,0,0,1,.33,5.13C329.29,237.91,328.91,238.43,328.55,238.68Z"
        transform="translate(-12.2 -4.4)" />
    <path class="cls-2" d="M132.67,222.5a145.15,145.15,0,0,1-62.23-13.13" transform="translate(-12.2 -4.4)" />
    <path class="cls-1"
        d="M54.94,198.6c.29-.35.72-.59,4-.89a35.11,35.11,0,0,1,4-.27,17.42,17.42,0,0,1,6.2,1.31c4.56,2.1,9,9.44,6.21,14-2.17,3.51-7.92,4.32-11.72,2.67-3.05-1.33-4.64-4.16-6.16-6.87a23.72,23.72,0,0,1-2.13-5.66C54.37,199.72,54.63,199,54.94,198.6Z"
        transform="translate(-12.2 -4.4)" />
    <path class="cls-1"
        d="M86.61,196c.38-.09.79,0,3.13,1.51a32.79,32.79,0,0,1,2.79,1.93A14.71,14.71,0,0,1,96,203.59c1.93,3.82,1,11.1-3.31,12.65-3.3,1.18-7.56-1.33-9.21-4.44-1.33-2.5-.89-5.23-.46-7.84a20.08,20.08,0,0,1,1.58-4.9C85.64,196.43,86.18,196.09,86.61,196Z"
        transform="translate(-12.2 -4.4)" />
    <path class="cls-1"
        d="M111.1,200.4c.39,0,.76.24,2.46,2.45a33.61,33.61,0,0,1,2,2.75,14.79,14.79,0,0,1,1.88,5.05c.56,4.24-2.68,10.82-7.29,10.86-3.5,0-6.7-3.74-7.24-7.22-.43-2.8.88-5.23,2.15-7.56a19.94,19.94,0,0,1,3.09-4.1C110,200.5,110.67,200.35,111.1,200.4Z"
        transform="translate(-12.2 -4.4)" />
    <path class="cls-1"
        d="M76,231.15c.23.31.59.53,3.35.89a29.19,29.19,0,0,0,3.38.36,14.59,14.59,0,0,0,5.32-.9c4-1.64,8-7.73,5.75-11.74-1.72-3-6.59-3.94-9.87-2.66-2.64,1-4.09,3.38-5.47,5.64a20.23,20.23,0,0,0-2,4.74C75.53,230.18,75.72,230.79,76,231.15Z"
        transform="translate(-12.2 -4.4)" />
    <path class="cls-1"
        d="M100,239.69c.31.22.73.31,3.46-.26a30.16,30.16,0,0,0,3.31-.77,15.07,15.07,0,0,0,4.72-2.61c3.18-2.85,5-10,1.55-13-2.64-2.31-7.52-1.54-10.2.75-2.15,1.84-2.74,4.54-3.3,7.13a20.21,20.21,0,0,0-.33,5.13C99.2,238.93,99.59,239.45,100,239.69Z"
        transform="translate(-12.2 -4.4)" />
    <circle class="cls-4" cx="76.69" cy="96.57" r="10.91" />
    <circle class="cls-4" cx="40.4" cy="82.32" r="9.85" />
    <circle class="cls-5" cx="79.39" cy="46.17" r="5.86" />
    <circle class="cls-6" cx="356.47" cy="87.71" r="16.65" />
    <circle class="cls-7" cx="359.87" cy="49.06" r="4.92" />
    <circle class="cls-8" cx="744.1" cy="146.2" r="6.09" />
    <circle class="cls-9" cx="365.86" cy="232.36" r="5.99" />
    <circle class="cls-4" cx="49.1" cy="233.63" r="6.65" />
    <path class="cls-4"
        d="M219.36,249.72A9.27,9.27,0,0,0,210.42,238a9.27,9.27,0,0,0-9.27,9.27,9.18,9.18,0,0,0,.32,2.42Z"
        transform="translate(-12.2 -4.4)" />
    <circle class="cls-4" cx="37.4" cy="141.1" r="3" />
    <circle class="cls-7" cx="358.18" cy="177.93" r="4.63" />
    <circle class="cls-4" cx="16.07" cy="208.67" r="16.07" />
    <circle class="cls-10" cx="210" cy="115.99" r="9.78" />
    <circle class="cls-7" cx="326.64" cy="58.71" r="6.09" />
    <circle class="cls-4" cx="196.27" cy="83.9" r="6.09" />
    <circle class="cls-11" cx="738.01" cy="204.97" r="27.78" />
    <circle class="cls-12" cx="24.79" cy="41.85" r="12.68" />
    <circle class="cls-13" cx="698.13" cy="63.88" r="11.59" />
    <circle class="cls-7" cx="762.58" cy="121.28" r="8.95" />
    <circle class="cls-7" cx="649.63" cy="14.57" r="3.13" />
    <circle class="cls-14" cx="16.07" cy="123.19" r="8.03" />
    <path class="cls-15"
        d="M273.56,51.62c4.46-1.63,8.71-1,12.28-.47a43.78,43.78,0,0,1,7.81,2A60.43,60.43,0,0,1,302.8,57,26.21,26.21,0,0,1,308,60.14c4,3.64,5.54,10,4.61,15-.5,2.73-1.33,3-1.88,6.56a30.49,30.49,0,0,0,0,7.82c.86,9.89,1.37,10,1.25,12.27-.33,6.68-5,11.57-6.41,13-11,11.37-40.85,9.1-53.78-8-1.57-2.08-9.09-11.06-6.72-19.7,1.48-5.41,5.27-5.09,11.49-15.17,3.55-5.75,3.64-8,7.74-12.82C267.06,55.85,269.45,53.12,273.56,51.62Z"
        transform="translate(-12.2 -4.4)" />
    <path class="cls-16"
        d="M141.53,50c.41-3.3.62-4.95,1.52-6.8,2.4-4.9,7.3-6.92,8.44-7.38A20,20,0,0,1,162.87,35c3,.48,9.94,1.57,14.19,6.92a11.3,11.3,0,0,1,.77,1.11c2.38,3.9,2.7,7.69,2.75,13.43,0,4.65-.08,8.54-.36,16.48C180.08,77,180,79,180,79.17c-.81,6-5.14,17.86-15.36,19.94-10.68,2.16-20.39-9.3-22.16-14.78-.16-.46-2.27-7.1-1-9.62.07-.14.38-.71.15-1-.43-.66-2.22.49-3.86,0s-2.43-2.49-3.17-4.46-1.86-4.94-.35-7.27a4.44,4.44,0,0,1,2.81-2c1.52-.22,2.11.88,2.93.59C141.5,60,140.78,56,141.53,50Z"
        transform="translate(-12.2 -4.4)" />
    <path class="cls-16" d="M191.36,180.6" transform="translate(-12.2 -4.4)" />
    <path class="cls-16"
        d="M272.86,61.35c3.28.54,4.48,1.68,6.68,2.46,6.15,2.18,9.56-2.1,12.55.24,1.9,1.48,2.15,4.47,2.58,9.61.33,4-.13,6.7,1.52,7.74,1.26.79,2.43-.2,3.52.7,1.3,1.08,1.42,4,.24,5.87-.66,1-2.68,2.08-6.69,4.1a7.07,7.07,0,0,0-2.69,1.76c-.82,1-1.11,2.17-1.29,4.81-.36,5,.39,5.31-.24,6.21-1.83,2.6-7.51-.5-13.86,0-.51,0-2,.19-2.55-.61s.22-1.76-.24-2.58c-.64-1.14-3-.68-4.46-.83-4.83-.46-7.43-7-7.73-7.73-1.08-2.55-1-4.55-.94-8.45a42.88,42.88,0,0,1,4-17,16,16,0,0,1,.83-1.81c.7-1.31,1.86-3.46,3.86-4.4C269.47,60.74,270.91,61,272.86,61.35Z"
        transform="translate(-12.2 -4.4)" />
    <path class="cls-16"
        d="M327.74,181.19c-1,1.26-.61,1.74-2.17,3.9-1.08,1.51-2.07,2.36-1.78,3.22a1.25,1.25,0,0,0,1.13.85c1-.11.83-2.35,2.66-3.53.17-.12.92-.6,1.33-.34s.27,1,.23,1.29c-.29,2.31-1.38,10.79.12,11.49a.61.61,0,0,0,.53,0c.44-.23.31-1.1.35-2.46a18.71,18.71,0,0,1,.18-2c.31-2.68.65-2.26.71-3.62,0-.25,0-.75.27-.86s.59.17.61.19c.58.49.36,1.5.25,3-.05.7,0,1.46,0,3,0,3.4.45,3.73.67,3.81a.91.91,0,0,0,.73-.15c.71-.49.31-1.64.38-4.72.05-1.91.2-1.24.17-2.12,0-.47-.06-.87.19-1.07a.91.91,0,0,1,1,0c.73.45.7,1.87.62,4.22a5.43,5.43,0,0,0,.35,2.46c.26.6.55.79.79.85a.64.64,0,0,0,.48,0c.4-.25.13-1.12,0-2.45-.14-1.67.17-1.42,0-3.12-.08-.93-.24-1.79.17-2a.4.4,0,0,1,.3-.06c.33.11.21.85.53,1.94.27.92.58,1.14.67,1.2s.69.32.94.14.18-1.12-.3-2.81a46.12,46.12,0,0,0-1.81-5.54c-.8-2-.83-1.79-1.15-2.76-.93-2.88-.35-3.7-1.08-4.39C334.36,177.31,329.87,178.51,327.74,181.19Z"
        transform="translate(-12.2 -4.4)" />
    <path class="cls-17"
        d="M252.69,117.67c-1.23-.09-1.79,5.49-5.16,16.89,0,0-6,20.35-15.79,38-2,3.53-4.05,6.93-4.05,6.93-.88,1.42-1.33,2.13-1.89,3-1.48,2.21-1.62,2.13-1.72,2.61-.4,1.84,1.58,3.73,4.84,6.78,2.46,2.28,3.68,3.43,4.38,3.38,3.13-.2,2.33-8.29,8.13-18.29a116,116,0,0,1,11.1-15.48,17.15,17.15,0,0,0,3.13-4.53c2.36-5.32.82-10.58,0-13.92C252,127.94,254.36,117.8,252.69,117.67Z"
        transform="translate(-12.2 -4.4)" />
    <path class="cls-18"
        d="M269.42,107.2c-.56.87-2,.37-5.63.62a17.52,17.52,0,0,0-3.59.47,11.51,11.51,0,0,0-5.32,3.13c-.57.61-1.27,1.55-3.14,7.5-.75,2.41-1.12,3.61-1.55,5.32-2.44,9.8-3.66,14.71-2.66,18.14s2.16,2.62,6.41,10.63c2.61,4.92,1.95,4.78,3,6.09,3.85,5,10.15,2.88,31.15,3.86,6.79.32,10.27.73,12.32-1.67s2.6-7.82,3-11.88c.23-2.56.19-4.32.94-4.53.91-.27,2.32,2,4.22,5.31,7.1,12.27,7.21,14.24,10.94,19.55,1.79,2.55,2.8,3.55,3.91,6.09,1.57,3.59,1.53,6,3,6.41s1.8-1.6,4.85-2.5c2.31-.68,3.55,0,4.65-1a4.37,4.37,0,0,0,1-3.34,46,46,0,0,0-4.69-18.6c-5-9.2-9.64-18.64-14.7-27.83-2-3.59-9-16.4-14.7-18.76a53.6,53.6,0,0,0-9-2.17c-.76-.06-1.16-.06-1.16-.06-1.15,0-1.3.21-1.6,0-.64-.37-.62-1.67-.61-2.66,0-.21,0-.57,0-.92,0-.56.05-.83.1-1.15.07-.5.12-.53.08-.63-.18-.4-1.08-.35-2-.35s-1.79-.14-2.69-.12c-4.51.11-7.88,0-12.67.25a20.56,20.56,0,0,1-2.18.09c-.85-.06-1.3-.21-1.57.06s-.12.79,0,1.52C269.64,105.22,269.85,106.52,269.42,107.2Z"
        transform="translate(-12.2 -4.4)" />
    <path class="cls-19"
        d="M301.91,158.31a126.79,126.79,0,0,1,12.51,91.41H222.2a141.66,141.66,0,0,1,33.46-92.8,56.33,56.33,0,0,0,46.25,1.39Z"
        transform="translate(-12.2 -4.4)" />
    <path class="cls-20"
        d="M253.39,123.28c-.39.1-.5.52-1.48,5-1.89,8.64-2,9.24-1.8,10.4.47,2.94,1.62,2.38,3.94,8,1.89,4.55,1.4,5.59,3,7.5.6.7,2,2.06,7.27,3.76a53.22,53.22,0,0,0,12,2.34c5.05.39,8.31-.05,14.82-.91,5-.67,7.3-1.31,8.29-3.13.45-.82.59-2.06.86-4.53.3-2.73.45-4.1.18-4.56-1.58-2.72-9.69,1.57-19.7.47a29.24,29.24,0,0,1-12.9-4.46C257.44,136.13,255.73,122.68,253.39,123.28Z"
        transform="translate(-12.2 -4.4)" />
    <polygon class="cls-20"
        points="113.15 184.53 107.75 245.32 139.18 245.32 143.05 221.11 148.44 221 149.38 238 149.38 245.32 178.46 245.32 177.64 183 113.15 184.53" />
    <path class="cls-21"
        d="M125,135.22c-2.76,16.61-5.6,17.29-6.56,31.66-.75,11.12-1.06,16.78,2.34,21.58,5.06,7.15,15.91,7.64,37.41,8.32,14.46.47,30.95.85,34-6.44.2-.47.3-.87.59-9.5.32-9.43.35-12,.35-12,.4-31.4.6-47.1.89-48.67a21.48,21.48,0,0,0,.17-8.32c-.16-.87-2-9.9-9-13.49-1.23-.63-2.23-.89-14.78-.7-9.05.13-12,.32-16.3-1.06-4.58-1.45-6.76-3.4-7.87-4.6a14.91,14.91,0,0,1-3.15-4.66c-1-2.48-.68-3.86-2-4.93-1.15-.93-3.16-1.3-4.22-.46-1.4,1.1-.11,3.47-.82,7a14.12,14.12,0,0,1-3.17,6.1C128.1,101.56,127.63,119.35,125,135.22Z"
        transform="translate(-12.2 -4.4)" />
    <path class="cls-22"
        d="M149.5,249.72l11.61-59a7.2,7.2,0,0,0-4.06-7.75,6.89,6.89,0,0,0-6.86,1,7.52,7.52,0,0,0-2.68,6.12,3,3,0,0,1-2,.59,2.9,2.9,0,0,1-1.52-.59,11.13,11.13,0,0,1,1.29-6.45,10.86,10.86,0,0,1,2.81-3.28c4.59-2.83,10.22-2.45,13.72.7s3.44,8.09,3.4,8.8q-5.81,29.92-11.6,59.85Z"
        transform="translate(-12.2 -4.4)" />
    <path class="cls-23"
        d="M144.69,169.7a15,15,0,0,1,8.68,1.29,50,50,0,0,1,9.15,6.45,51,51,0,0,1,5.39,5.59c.18.39.15.53.09.59-.35.38-2.37-1.21-5.22-2.55a24.64,24.64,0,0,0-3.55-1.34,25.24,25.24,0,0,1,4,2.84,26,26,0,0,1,4.69,5.35.85.85,0,0,1-.32.3c-.88.46-2.46-1-3.23-1.67a39.77,39.77,0,0,0-6-4.27,35,35,0,0,1,3.61,3.83,35.92,35.92,0,0,1,3.21,4.69.86.86,0,0,1-.37.22c-1,.31-2.32-1.43-3.65-2.94a35.19,35.19,0,0,0-4.09-4c.42,1,.82,2.18,1.21,3.4s.65,2.24.9,3.28c.07.42.11.94-.08,1-.43.19-1.6-1.92-3-3.61a18.75,18.75,0,0,0-5.54-4.57c-2-.52-4-1.14-6.19-1.87-3.16-1.08-6-2.26-8.64-3.44.25-.8,2.63-8.13,7.43-8.68A5,5,0,0,1,144.69,169.7Z"
        transform="translate(-12.2 -4.4)" />
    <path class="cls-23"
        d="M221.38,183.69c-2.61-1.23-6.25-1.24-7.11.23s1.19,4.3,1.37,7.78a1.62,1.62,0,0,0,.06.57c.3.93,1.53,1.32,2.87,3.34s2.19,5.24,3.28,9.3c.09.34.33,1.25.78,1.29s.6-.4.67-.5a3.89,3.89,0,0,0,.11-2.86c-.3-1.73-.48-3.91-.23-4s.8,1.4,2.35,4.61c1.07,2.21,1.65,3.29,2.15,3.2.31,0,.48-.57.54-.78a3.5,3.5,0,0,0-.43-2.58,15.19,15.19,0,0,1-1.68-5.27c.11-.06.91,1.46,2.43,3.71.6.89.94,2,1.74,2.09a.76.76,0,0,0,.64-.18c.51-.55-.45-2.21-1-3.2-1.2-2.09-2.23-2.94-1.91-3.91a.82.82,0,0,1,.43-.55c.69-.23,1.88,1.24,2.5,2.23.77,1.23.94,2.17,1.48,2.19a.92.92,0,0,0,.68-.44c.5-.72.2-2-1.18-4.33-1.57-2.62-2.92-3.83-5.2-6.37C223,185.12,223,184.47,221.38,183.69Z"
        transform="translate(-12.2 -4.4)" />
    <path class="cls-24"
        d="M193.24,106.49c.66-.07,3.72,12.39,4.57,27.09.57,9.7-.32,11.86,1.76,16.65.68,1.55,2,4.18,12.55,15,8.77,9,10.88,10.31,10.9,13.6,0,3.54-2.44,6.44-7.39,12.25-2.08,2.43-3.32,3.39-4.92,3.58-1.83.23-2.94-.79-6.68-3.51-7.88-5.75-10.76-7-11.26-10.32-.06-.41-.08-1.17-.12-2.7-.08-3.25.08-5.64.12-6.33.16-2.58,1.48-27,1.06-46.91C193.57,113,192.77,106.54,193.24,106.49Z"
        transform="translate(-12.2 -4.4)" />
    <path class="cls-24"
        d="M124.88,96.76c-5.38-1.7-12.81,7.66-19.23,15.75-6,7.61-9,14.6-15,28.58C84.89,154.5,84.7,158,86,161.25c1.55,4,5.45,6.25,13.25,10.68,6.9,3.92,12.92,5.62,25,9,4.92,1.39,7.48,2.27,10.2,1.06,1.53-.68,2.1-1.53,7.78-8.91,3.52-4.57,3.85-5,3.83-5.87-.1-4.58-9-8-13.25-9.73-8.28-3.37-14.23-3.07-15-6.1-.33-1.28.59-2.28,2.7-5.27,2.53-3.59,4.53-7.54,7-11.14C133.94,125.66,132.9,99.29,124.88,96.76Z"
        transform="translate(-12.2 -4.4)" />
    <path class="cls-24"
        d="M122.41,127.72c6.24,18.55,23.14,27.5,29.44,30.84,7.27,3.85,13.53,5.41,20.05,7,10.86,2.71,16.29,4.06,19.7,1.53,1.19-.89,3-2.83,3.4-28.85.15-11-.33-5.26-.35-16.53,0-10,.33-14.3-2.54-18a18.82,18.82,0,0,0-7-5.36,18,18,0,0,0-2.74-.82C174.76,96,168.61,101.7,159,101a34.26,34.26,0,0,1-8.21-1.87c-4.17-1.36-6.25-2-8-3.87-3.31-3.54-2.86-8.55-3.89-8.52-.68,0-.65,2.21-1.74,4.18-2.52,4.53-8.79,3.48-12.31,5.86C117.75,101.56,119,117.6,122.41,127.72Z"
        transform="translate(-12.2 -4.4)" />
    <path class="cls-25"
        d="M220.41,187.6c-1-.16-1.63,1.15-3.91,3.79-1.74,2-2.82,2.92-2.51,3.71.17.41.5.29.94.86.86,1.1.18,2.27.9,2.82.56.42,1.14-.15,1.68.31s.18,1.58.78,1.95.93-.18,1.38.14.18,1,.58,1.31c.6.42,2-.66,2.5-1a29.53,29.53,0,0,0,2.14-2.07,20.75,20.75,0,0,1,2.12-1.83,4.26,4.26,0,0,0,1.29-1.18c.14-.21.6-.88.36-1.22s-.79-.2-.91-.18c-.64.1-1,.48-2.11,1.56-1.26,1.27-1.74,1.78-2.3,1.68-.1,0-.34-.06-.43-.23-.23-.45.76-1.25,2.15-2.78,2.1-2.32,2-2.91,1.95-3.17a1.35,1.35,0,0,0-1.17-.85c-.59,0-1.06.36-1.82,1.15-2.15,2.24-3,3.78-3.77,3.57a.31.31,0,0,1-.2-.11c-.13-.21,0-.75,2.78-3.76.77-.84,1.25-1.33,1.13-1.91a1.07,1.07,0,0,0-.78-.82c-.51-.1-1,.37-2,1.56-1.91,2.16-2.79,3.36-3.21,3.17a.29.29,0,0,1-.15-.2c-.26-.59.57-1.45,2.5-3.71.77-.9,1.16-1.37,1-1.84A1.16,1.16,0,0,0,220.41,187.6Z"
        transform="translate(-12.2 -4.4)" />
    <path class="cls-26"
        d="M139,71.86A18.17,18.17,0,0,0,140,69.2c.54-2,1-3.69.24-5.31-.09-.19-1.09-2.3-2.5-2.11a2.53,2.53,0,0,0-1.8,2"
        transform="translate(-12.2 -4.4)" />
    <ellipse class="cls-27" cx="146.47" cy="55.82" rx="0.99" ry="2.89" />
    <ellipse class="cls-27" cx="164.32" cy="56.66" rx="0.99" ry="2.89" />
    <path class="cls-15"
        d="M180,78.35c-.68-.1-1.57,4.34-2.38,4.22-.61-.09-.78-2.67-.87-3.67-.2-2.37.34-3.66-.46-4.38-.52-.45-1.11-.26-2.9-.15a38.61,38.61,0,0,1-5.24-.17,23.8,23.8,0,0,1-5.24-.77c-2.82-.8-3.55-1.72-5.47-1.49a4.37,4.37,0,0,0-2.73,1.1c-1.53,1.51-1.5,4.58-1.49,7.5,0,1.09.08,2.15-.62,2.74a2.42,2.42,0,0,1-2.11.31c-2.3-.69-2.85-5.42-3.13-8-.42-4-.74-12.77.16-17.83a4.26,4.26,0,0,0-.24-2.58c-.16-.34-.67-1.26-2.89-2.26s-4.38-2-6-1c-1.39.83-1.75,2.57-2,4-.24,1.18-.53,2.61.23,3.36s1.93,0,3.37.78a4.49,4.49,0,0,1,1.79,2.19c.66,1.38.6,2.55.47,5.78-.08,2-.12,3.19-.15,3.89h0v.09s-1.74,14.61,1.34,20.29c5.18,9.5,31.33,7.7,35.16-.28a24.59,24.59,0,0,0,1.47-5C180.88,82.72,180.68,78.45,180,78.35Zm-5.36,4.14c-.34,2.6.05,3.17-.62,4.14s-2.05,1.81-3,1.41-1.21-2.69-1.26-3.05c-.06-.55,0-1-.38-1.32a2.05,2.05,0,0,0-1.49-.36,2.81,2.81,0,0,0-1.57.44c-.85.63-.4,1.61-1.07,2.63a4.28,4.28,0,0,1-3.38,1.82c-2.68,0-4.13-3.15-4.22-3.36a12.48,12.48,0,0,1-.47-4.07c-.1-2.57-.13-3.86.31-4.22,1.13-.89,2.86,1.45,6.49,1.33,2.33-.07,2.74-1.06,4.69-.62,1.53.34,1.89,1.08,3.68,1.25,1.5.14,2.11-.31,2.58.15S175,80.05,174.67,82.49Z"
        transform="translate(-12.2 -4.4)" />
    <line class="cls-28" x1="127.92" y1="56.06" x2="141.37" y2="56.77" />
    <path class="cls-29" d="M180.91,61.7l8.06.42" transform="translate(-12.2 -4.4)" />
    <path class="cls-15"
        d="M154.43,51.69c-.28-.52,2.77-3.88,6.56-3.83,4.12.06,7.21,4.11,6.88,4.62s-2.86-1.89-7.19-2C156.94,50.46,154.65,52.12,154.43,51.69Z"
        transform="translate(-12.2 -4.4)" />
    <path class="cls-15"
        d="M174,52.85c-.16-.38,1.59-2.83,3.77-2.79,2.37,0,4.15,3,4,3.36s-1.65-1.37-4.14-1.42C175.47,52,174.16,53.16,174,52.85Z"
        transform="translate(-12.2 -4.4)" />
    <ellipse class="cls-29" cx="149.11" cy="56.66" rx="7.43" ry="8.53" />
    <ellipse class="cls-29" cx="168.35" cy="58.4" rx="7.43" ry="8.53" />
    <path class="cls-29" d="M168.75,62.8c-.17-.67.76-1.28,2-1.34s2.17.34,2.41.95" transform="translate(-12.2 -4.4)" />
    <path class="cls-30" d="M158.65,78.19a18.2,18.2,0,0,0,15,1.72" transform="translate(-12.2 -4.4)" />
    <path class="cls-30" d="M174,69.15c.21.19,1.52,1.38,1.23,2.52s-2,1.52-3.17,1.76a12.54,12.54,0,0,1-7.68-1"
        transform="translate(-12.2 -4.4)" />
    <path class="cls-15"
        d="M273.64,69.05c.3-.25-.47-2.4-2.27-3.6a5.4,5.4,0,0,0-5.16-.47c-1.18.56-2,1.62-1.87,1.88s1.38-.64,3.28-.53a7.42,7.42,0,0,1,2.82.84C272.57,68.15,273.4,69.25,273.64,69.05Z"
        transform="translate(-12.2 -4.4)" />
    <path class="cls-15"
        d="M280.05,70.77a7,7,0,0,1,3.29-1.33,8.06,8.06,0,0,1,5.78,1.88c1.85,1.43,3,3.46,2.74,3.75s-1.81-1.47-5.09-2.58a11.84,11.84,0,0,0-3.9-.78c-2.14,0-3.67.61-3.83.23S279.76,71,280.05,70.77Z"
        transform="translate(-12.2 -4.4)" />
    <path class="cls-30"
        d="M271.79,80.15a16.2,16.2,0,0,1-1.71,1.58A6.49,6.49,0,0,0,268.74,83a2.18,2.18,0,0,0-.62,1.41,1.88,1.88,0,0,0,.7,1.33,2.14,2.14,0,0,0,1.17.47"
        transform="translate(-12.2 -4.4)" />
    <path class="cls-31" d="M264.42,76.08a3.09,3.09,0,0,1,3.12-2.5,3.14,3.14,0,0,1,2.51,3.91"
        transform="translate(-12.2 -4.4)" />
    <path class="cls-31" d="M280.42,80.7a3.08,3.08,0,0,1,3.12-2.5,3.14,3.14,0,0,1,2.51,3.91"
        transform="translate(-12.2 -4.4)" />
    <path class="cls-30"
        d="M298.89,86.17a2,2,0,0,0,.08-1.25,2,2,0,0,0-1.17-1.33c-1.34-.48-3.2,1.34-4.07,2.66a7.5,7.5,0,0,0-1.17,4.06"
        transform="translate(-12.2 -4.4)" />
    <path class="cls-30" d="M267.31,90a11.06,11.06,0,0,0,3.05,2.27,11.83,11.83,0,0,0,7.74.86"
        transform="translate(-12.2 -4.4)" />
    <path class="cls-30" d="M268.25,92.11A6.42,6.42,0,0,0,270.51,94a6.5,6.5,0,0,0,4,.54"
        transform="translate(-12.2 -4.4)" />
    <path class="cls-31" d="M256.83,72.72l3.76,1" transform="translate(-12.2 -4.4)" />
    <path class="cls-31" d="M289.9,82.65a9.32,9.32,0,0,1,4.54.16" transform="translate(-12.2 -4.4)" />
    <ellipse class="cls-28" cx="253.27" cy="70.91" rx="7.55" ry="8.15" />
    <ellipse class="cls-28" cx="271.08" cy="75.75" rx="7.55" ry="8.15" />
    <path class="cls-31" d="M272.3,78.78a2.21,2.21,0,0,1,2.31-.44c.94.36,1.74,1.47,1.07,2.28"
        transform="translate(-12.2 -4.4)" />
    <path class="cls-15"
        d="M288.73,53.18c8.88,3.46,12.11,12,13,14.3,1,2.67,2.35,6.39,1,10.4a14.43,14.43,0,0,1-2.8,4.71c-1.45,1.71-3,3.57-4.39,3.27-2.07-.47-2.61-5.64-2.81-7.59-.56-5.32.87-6.83-.55-9.07s-4.58-3-6.8-3.51c-3.77-.83-4.16.44-7.35-.39-4.35-1.14-5.22-3.92-8-3.37a10.78,10.78,0,0,0-3.91,2.12c-2,1.41-2.69,2.48-2.89,2.34-.43-.29,1.46-5.47,5.78-9.46a18,18,0,0,1,19.78-3.75Z"
        transform="translate(-12.2 -4.4)" />
    <circle class="cls-32" cx="280.73" cy="88.93" r="2.42" />
    <path class="cls-32"
        d="M286.35,51.23a11.43,11.43,0,0,1,3.47-.79,11.78,11.78,0,0,1,4.62.63c1.18.48,8.3,3.54,11,11.33a19.79,19.79,0,0,1-5.19,20.41,1.51,1.51,0,0,0-.75-1,1.53,1.53,0,0,0-1.18-.08,21.87,21.87,0,0,0,1.49-17.35C296.44,54.73,287.42,51.58,286.35,51.23Z"
        transform="translate(-12.2 -4.4)" />
    <path class="cls-1"
        d="M749.28,92c-1.35-.1-2.44,1.38-4.55,4.35-2.9,4.08-4.35,6.13-4.64,8.8-.43,4,1.5,7,4.22,11.16,1.21,1.89,4.71,7.3,6.67,6.62,1.25-.44.43-2.88,1.8-7.1,1.85-5.69,5-6.38,4.8-10-.06-1.08-.34-1.11-3.29-6.44C751.05,93.53,750.56,92.09,749.28,92Z"
        transform="translate(-12.2 -4.4)" />
    <path class="cls-2" d="M746.07,95c4.39-9,9.48-18.49,15.38-28.26A358.73,358.73,0,0,1,795,20"
        transform="translate(-12.2 -4.4)" />
    <path class="cls-1"
        d="M757.72,73.61c-1.29.42-1.72,2.21-2.54,5.76-1.12,4.88-1.68,7.32-.92,9.91,1.12,3.81,4.06,5.85,8.17,8.69,1.85,1.28,7.15,4.94,8.7,3.56,1-.88-.71-2.82-1-7.25-.47-6,2.17-7.8.59-11.1-.47-1-.74-.9-5.51-4.68C759.94,74.35,758.94,73.21,757.72,73.61Z"
        transform="translate(-12.2 -4.4)" />
    <path class="cls-1"
        d="M757.42,73.4c.4,1.3-.81,2.68-3.25,5.39-3.35,3.73-5,5.59-7.57,6.46-3.76,1.29-7.11.06-11.81-1.67-2.11-.77-8.16-3-7.92-5.06.15-1.32,2.71-1,6.54-3.31,5.14-3.06,5.12-6.28,8.73-6.89,1.07-.18,1.16.09,7,1.81C755.53,72,757.05,72.17,757.42,73.4Z"
        transform="translate(-12.2 -4.4)" />
    <path class="cls-1"
        d="M771.53,51.37c.4,1.3-.81,2.68-3.25,5.39-3.34,3.73-5,5.59-7.56,6.46-3.77,1.29-7.12.06-11.82-1.67-2.1-.77-8.15-3-7.92-5.06.16-1.32,2.71-1.05,6.54-3.32,5.14-3.05,5.12-6.27,8.73-6.88,1.07-.18,1.16.09,7,1.81C769.64,50,771.16,50.14,771.53,51.37Z"
        transform="translate(-12.2 -4.4)" />
    <path class="cls-1"
        d="M788.51,30.52c.12,1.35-1.35,2.45-4.29,4.61-4,3-6.06,4.44-8.73,4.77-4,.49-7-1.41-11.22-4.06-1.9-1.19-7.37-4.61-6.71-6.58.42-1.26,2.87-.47,7.07-1.9,5.66-1.93,6.31-5.09,10-4.95,1.09.05,1.12.33,6.48,3.21C786.94,28.77,788.39,29.24,788.51,30.52Z"
        transform="translate(-12.2 -4.4)" />
    <path class="cls-1"
        d="M770.28,51c-1.24.53-1.52,2.34-2,6-.69,5-1,7.45-.07,10,1.44,3.71,4.55,5.48,8.89,8,1.95,1.11,7.55,4.3,9,2.8.91-1-.94-2.75-1.67-7.14-1-5.9,1.5-8-.36-11.11-.55-.94-.81-.83-5.89-4.19C772.56,51.55,771.47,50.49,770.28,51Z"
        transform="translate(-12.2 -4.4)" />
    <path class="cls-2" d="M795,19.42a182.52,182.52,0,0,0-61.34,16.94" transform="translate(-12.2 -4.4)" />
    <path class="cls-1"
        d="M716.26,49.1c.34.4.84.66,4.57.91a43.91,43.91,0,0,0,4.56.19,19.79,19.79,0,0,0,7-1.67c5.15-2.53,10.08-11.05,6.7-16.22-2.58-3.94-9.17-4.7-13.46-2.71-3.45,1.61-5.18,4.89-6.84,8a27.49,27.49,0,0,0-2.28,6.51C715.58,47.84,715.89,48.65,716.26,49.1Z"
        transform="translate(-12.2 -4.4)" />
    <path class="cls-1"
        d="M752.51,51.18c.43.09.9,0,3.52-1.82a33.59,33.59,0,0,0,3.14-2.29,16.84,16.84,0,0,0,3.8-4.84c2.09-4.42.85-12.7-4.14-14.35-3.81-1.26-8.6,1.73-10.4,5.33-1.45,2.9-.86,6-.3,9a23.09,23.09,0,0,0,1.94,5.55C751.38,50.7,752,51.08,752.51,51.18Z"
        transform="translate(-12.2 -4.4)" />
    <path class="cls-1"
        d="M780.35,45.44c.44-.06.86-.3,2.74-2.87a37.55,37.55,0,0,0,2.21-3.2,17,17,0,0,0,2-5.82c.51-4.86-3.38-12.28-8.64-12.19-4,.06-7.55,4.46-8.06,8.45-.41,3.21,1.16,5.95,2.67,8.57a23,23,0,0,0,3.65,4.6C779.14,45.36,779.86,45.51,780.35,45.44Z"
        transform="translate(-12.2 -4.4)" />
    <path class="cls-1"
        d="M739.36,11.33c.25-.37.66-.62,3.8-1.12A37.23,37.23,0,0,1,747,9.7a16.85,16.85,0,0,1,6.1.88c4.56,1.75,9.38,8.6,6.91,13.24-1.89,3.54-7.42,4.69-11.21,3.32-3-1.1-4.76-3.74-6.4-6.28A22.72,22.72,0,0,1,740,15.51C738.87,12.45,739.07,11.74,739.36,11.33Z"
        transform="translate(-12.2 -4.4)" />
    <circle class="cls-4" cx="221.27" cy="59.36" r="3" />
    <circle class="cls-7" cx="190.19" cy="26.79" r="8.03" />
    <circle class="cls-4" cx="221.27" cy="148.69" r="3" />
    <circle class="cls-9" cx="190.19" cy="208.67" r="8.03" />
    <circle class="cls-6" cx="105.3" cy="20" r="3" />
    <line class="cls-33" x1="207.16" y1="245.32" x2="189.27" y2="245.32" />
    <circle class="cls-7" cx="407.02" cy="35.58" r="8.21" />
    <circle class="cls-9" cx="698.13" cy="230.28" r="4.92" />
    <circle class="cls-9" cx="671.61" cy="30.1" r="5.97" />
    <circle class="cls-4" cx="353.55" cy="17.01" r="3" />
    <circle class="cls-6" cx="317.15" cy="20" r="3" />
    <path class="cls-34"
        d="M414.54,104a5.77,5.77,0,0,0,.39,2.16,3.44,3.44,0,0,0,1.15,1.56,3,3,0,0,0,1.9.58v2a5.35,5.35,0,0,1-3.07-.83,5,5,0,0,1-1.86-2.26,8,8,0,0,1-.62-3.19V99.18h2.11Zm3.44,4.3h5.73v2H418Zm6.47-9.11v18.49h-2.24V99.18Z"
        transform="translate(-12.2 -4.4)" />
    <path class="cls-34" d="M433.83,105.52v2H426.7v-2Zm-2.51.53v11.62h-2.11V106.05Z"
        transform="translate(-12.2 -4.4)" />
    <path class="cls-34"
        d="M435.32,108.32a6.17,6.17,0,0,1,2.26-2.25,6.67,6.67,0,0,1,6.41,0,6.22,6.22,0,0,1,2.25,2.25,6.86,6.86,0,0,1,0,6.54,6.17,6.17,0,0,1-2.25,2.26,6.67,6.67,0,0,1-6.41,0,6.13,6.13,0,0,1-2.26-2.26,6.86,6.86,0,0,1,0-6.54Zm1.85,5.52a4.16,4.16,0,0,0,1.48,1.55,4.33,4.33,0,0,0,4.26,0,4.24,4.24,0,0,0,1.48-1.55,4.57,4.57,0,0,0,.54-2.25,4.62,4.62,0,0,0-.54-2.25,4,4,0,0,0-1.48-1.55,4.33,4.33,0,0,0-4.26,0,4,4,0,0,0-1.48,1.55,4.62,4.62,0,0,0-.54,2.25A4.57,4.57,0,0,0,437.17,113.84Z"
        transform="translate(-12.2 -4.4)" />
    <path class="cls-34"
        d="M449.39,105.62a7.46,7.46,0,0,1,1.68-3.23,7.59,7.59,0,0,1,3.32-2,7.12,7.12,0,0,0,2.68-1.47,3.48,3.48,0,0,0,1.07-1.81h2.08a4.21,4.21,0,0,1-.84,2.13,6.89,6.89,0,0,1-1.86,1.68,12.53,12.53,0,0,1-2.61,1.19,5.54,5.54,0,0,0-2.55,1.58,6,6,0,0,0-1.25,2.39,10.61,10.61,0,0,0-.34,2.66v2.72l-1.85-1.4A18.58,18.58,0,0,1,449.39,105.62Zm5.82-.37a6.39,6.39,0,0,1,3.21.82,6.12,6.12,0,0,1,2.24,2.25,6.86,6.86,0,0,1,0,6.54,6.07,6.07,0,0,1-2.24,2.26,6.39,6.39,0,0,1-3.21.82,5.93,5.93,0,0,1-3.2-.89,6,6,0,0,1-2.26-2.65,10.24,10.24,0,0,1-.83-4.39l2.11,1.58a4.57,4.57,0,0,0,.55,2.25,4.29,4.29,0,0,0,1.5,1.55,4.31,4.31,0,0,0,4.25,0,4.08,4.08,0,0,0,1.48-1.55,4.57,4.57,0,0,0,.54-2.25,4.62,4.62,0,0,0-.54-2.25,3.88,3.88,0,0,0-1.48-1.55,4.07,4.07,0,0,0-2.12-.56Zm-4.76,3.69a5.87,5.87,0,0,1,1.06-2,4.68,4.68,0,0,1,1.62-1.25,4.91,4.91,0,0,1,2.08-.44v2a3.78,3.78,0,0,0-1.43.3,4.4,4.4,0,0,0-1.36.84,4.2,4.2,0,0,0-1,1.36,4.38,4.38,0,0,0-.38,1.86h-.95A8.7,8.7,0,0,1,450.45,108.94Z"
        transform="translate(-12.2 -4.4)" />
    <path class="cls-34"
        d="M466.51,105.52v12.15H464.4V105.52Zm-.87,4.59h3.78a5.32,5.32,0,0,1,3.16.92,3.27,3.27,0,0,1,1.28,2.86,3.73,3.73,0,0,1-.58,2.14,3.33,3.33,0,0,1-1.59,1.24,6,6,0,0,1-2.27.4h-3.78v-1.85h3.78a3.2,3.2,0,0,0,1.28-.22,1.69,1.69,0,0,0,.78-.66,2,2,0,0,0,.26-1,1.76,1.76,0,0,0-.58-1.42,2.56,2.56,0,0,0-1.74-.51h-3.78Zm11.84-4.59v12.15h-2.12V105.52Z"
        transform="translate(-12.2 -4.4)" />
    <path class="cls-34" d="M499.27,117.67h-2.11V107.5h-5.68v10.17h-2.11V105.52h9.9Z"
        transform="translate(-12.2 -4.4)" />
    <path class="cls-34"
        d="M503,108.32a6.17,6.17,0,0,1,2.26-2.25,6.67,6.67,0,0,1,6.41,0,6.12,6.12,0,0,1,2.24,2.25,6.78,6.78,0,0,1,0,6.54,6.07,6.07,0,0,1-2.24,2.26,6.67,6.67,0,0,1-6.41,0,6.13,6.13,0,0,1-2.26-2.26,6.86,6.86,0,0,1,0-6.54Zm1.85,5.52a4.16,4.16,0,0,0,1.48,1.55,4.33,4.33,0,0,0,4.26,0,4.24,4.24,0,0,0,1.48-1.55,4.57,4.57,0,0,0,.54-2.25,4.62,4.62,0,0,0-.54-2.25,4,4,0,0,0-1.48-1.55,4.33,4.33,0,0,0-4.26,0,4,4,0,0,0-1.48,1.55,4.62,4.62,0,0,0-.54,2.25A4.57,4.57,0,0,0,504.86,113.84Z"
        transform="translate(-12.2 -4.4)" />
    <path class="cls-34"
        d="M519.78,105.52v12.15h-2.12V105.52Zm-.87,5.1h3.25a2.82,2.82,0,0,0,.85-.12,1.71,1.71,0,0,0,.65-.36,1.76,1.76,0,0,0,.41-.54,1.44,1.44,0,0,0,.15-.65,1.4,1.4,0,0,0-.56-1.15,2.37,2.37,0,0,0-1.5-.43h-3.25v-1.85h3.25a6.24,6.24,0,0,1,2.07.33,3.36,3.36,0,0,1,1.52,1.05,3,3,0,0,1,.58,1.92,2.47,2.47,0,0,1-.58,1.7,3.54,3.54,0,0,1-1.52,1,6.24,6.24,0,0,1-2.07.33h-3.25Zm3.51.71a9.26,9.26,0,0,1,2.27.26,3.15,3.15,0,0,1,1.59.93,2.75,2.75,0,0,1,.58,1.85,3.34,3.34,0,0,1-.91,2.34,4,4,0,0,1-3,1h-4v-1.85h3.51a2.64,2.64,0,0,0,1.76-.5,1.58,1.58,0,0,0,.56-1.22,1.45,1.45,0,0,0-.14-.66,1.72,1.72,0,0,0-.42-.52,1.87,1.87,0,0,0-.72-.36,4,4,0,0,0-1-.12h-3.51v-1.11Z"
        transform="translate(-12.2 -4.4)" />
    <path class="cls-34"
        d="M529.92,110.33H538a4.36,4.36,0,0,0-.51-1.68,2.91,2.91,0,0,0-1.14-1.14,3.6,3.6,0,0,0-1.78-.41,4.13,4.13,0,0,0-1.93.45,3.57,3.57,0,0,0-1.39,1.28,3.7,3.7,0,0,0-.51,2l0,.79a5.35,5.35,0,0,0,.47,2.38,3.36,3.36,0,0,0,1.35,1.48,4,4,0,0,0,2.06.5,4.44,4.44,0,0,0,1.6-.27,4.35,4.35,0,0,0,1.25-.77,4.82,4.82,0,0,0,.95-1.15l1.72,1.08a8.68,8.68,0,0,1-1.35,1.63,5,5,0,0,1-1.79,1.08,7.76,7.76,0,0,1-2.65.39,5.47,5.47,0,0,1-2.94-.82,5.77,5.77,0,0,1-2.06-2.26,7,7,0,0,1-.75-3.27c0-.22,0-.44,0-.66s0-.42.08-.63a6.59,6.59,0,0,1,1.06-2.64,5.4,5.4,0,0,1,2-1.77,6,6,0,0,1,2.81-.64,5.81,5.81,0,0,1,3,.77,5.28,5.28,0,0,1,2,2.15,7.26,7.26,0,0,1,.71,3.32v.32c0,.1,0,.21,0,.31H529.92Z"
        transform="translate(-12.2 -4.4)" />
    <path class="cls-34"
        d="M543.11,123.48v-18h2.11v18Zm11.46-8.5a5.66,5.66,0,0,1-2.18,2.19,6,6,0,0,1-3,.77,4.72,4.72,0,0,1-2.66-.77,5.09,5.09,0,0,1-1.79-2.19,9.17,9.17,0,0,1,0-6.78,5.12,5.12,0,0,1,1.79-2.18,4.72,4.72,0,0,1,2.66-.77,6,6,0,0,1,3,.77,5.71,5.71,0,0,1,2.18,2.18,7.42,7.42,0,0,1,0,6.78Zm-1.89-5.76a3.74,3.74,0,0,0-1.5-1.48,4.3,4.3,0,0,0-2.08-.51,3.67,3.67,0,0,0-1.82.51,3.89,3.89,0,0,0-1.48,1.48,5.15,5.15,0,0,0,0,4.75,4,4,0,0,0,1.48,1.48,3.65,3.65,0,0,0,1.82.5,4.29,4.29,0,0,0,2.08-.5,3.81,3.81,0,0,0,1.5-1.48,5.23,5.23,0,0,0,0-4.75Z"
        transform="translate(-12.2 -4.4)" />
    <path class="cls-34"
        d="M558.43,118.6l.13-3,10-11-.13,3Zm2.11-2.91-2.11,2.91V105.52h2.11Zm8.06,2h-2.11V107.5l2.11-2.91Z"
        transform="translate(-12.2 -4.4)" />
    <path class="cls-34" d="M578,105.52v2h-7.13v-2Zm-2.51.53v11.62h-2.11V106.05Z" transform="translate(-12.2 -4.4)" />
    <path class="cls-34"
        d="M582.21,105.52v12.15H580.1V105.52Zm-.87,4.59h3.78a5.26,5.26,0,0,1,3.15.92,3.24,3.24,0,0,1,1.28,2.86A3.65,3.65,0,0,1,589,116a3.26,3.26,0,0,1-1.58,1.24,6,6,0,0,1-2.27.4h-3.78v-1.85h3.78a3.23,3.23,0,0,0,1.28-.22,1.69,1.69,0,0,0,.78-.66,2,2,0,0,0,.26-1,1.76,1.76,0,0,0-.58-1.42,2.58,2.58,0,0,0-1.74-.51h-3.78Z"
        transform="translate(-12.2 -4.4)" />
    <path class="cls-34"
        d="M602.9,105.52v12.15h-2.12V105.52Zm-.87,5.1h3.25a2.82,2.82,0,0,0,.85-.12,1.71,1.71,0,0,0,.65-.36,1.76,1.76,0,0,0,.41-.54,1.44,1.44,0,0,0,.15-.65,1.4,1.4,0,0,0-.56-1.15,2.37,2.37,0,0,0-1.5-.43H602v-1.85h3.25a6.24,6.24,0,0,1,2.07.33,3.36,3.36,0,0,1,1.52,1.05,3,3,0,0,1,.58,1.92,2.47,2.47,0,0,1-.58,1.7,3.54,3.54,0,0,1-1.52,1,6.24,6.24,0,0,1-2.07.33H602Zm3.51.71a9.26,9.26,0,0,1,2.27.26,3.15,3.15,0,0,1,1.59.93,2.75,2.75,0,0,1,.58,1.85,3.34,3.34,0,0,1-.91,2.34,4,4,0,0,1-3,1h-4v-1.85h3.51a2.64,2.64,0,0,0,1.76-.5,1.58,1.58,0,0,0,.56-1.22,1.45,1.45,0,0,0-.14-.66,1.72,1.72,0,0,0-.42-.52,1.87,1.87,0,0,0-.72-.36,4,4,0,0,0-1-.12H602v-1.11Z"
        transform="translate(-12.2 -4.4)" />
    <path class="cls-34"
        d="M622,117.67v2.38h-2.25v-4.36h15.06v4.36H632.7v-2.38Zm1.72-.79h-2.38l5.94-12.29,6,12.29h-2.38l-3.57-7.72Z"
        transform="translate(-12.2 -4.4)" />
    <path class="cls-34"
        d="M637.76,108.32a6.1,6.1,0,0,1,2.26-2.25,6.65,6.65,0,0,1,6.4,0,6.07,6.07,0,0,1,2.25,2.25,6.86,6.86,0,0,1,0,6.54,6,6,0,0,1-2.25,2.26,6.65,6.65,0,0,1-6.4,0,6.05,6.05,0,0,1-2.26-2.26,6.86,6.86,0,0,1,0-6.54Zm1.85,5.52a4.08,4.08,0,0,0,1.48,1.55,4.31,4.31,0,0,0,4.25,0,4.08,4.08,0,0,0,1.48-1.55,4.57,4.57,0,0,0,.54-2.25,4.62,4.62,0,0,0-.54-2.25,3.88,3.88,0,0,0-1.48-1.55,4.31,4.31,0,0,0-4.25,0,3.88,3.88,0,0,0-1.48,1.55,4.62,4.62,0,0,0-.54,2.25A4.57,4.57,0,0,0,639.61,113.84Z"
        transform="translate(-12.2 -4.4)" />
    <path class="cls-34"
        d="M651.83,105.62a7.35,7.35,0,0,1,1.68-3.23,7.55,7.55,0,0,1,3.31-2,7,7,0,0,0,2.68-1.47,3.42,3.42,0,0,0,1.07-1.81h2.09a4.39,4.39,0,0,1-.84,2.13,6.79,6.79,0,0,1-1.87,1.68,12.21,12.21,0,0,1-2.6,1.19,5.54,5.54,0,0,0-2.55,1.58,5.73,5.73,0,0,0-1.25,2.39,10.62,10.62,0,0,0-.35,2.66v2.72l-1.85-1.4A18,18,0,0,1,651.83,105.62Zm5.81-.37a6.33,6.33,0,0,1,3.21.82,6.22,6.22,0,0,1,2.25,2.25,6.86,6.86,0,0,1,0,6.54,6.17,6.17,0,0,1-2.25,2.26,6.33,6.33,0,0,1-3.21.82,6,6,0,0,1-3.2-.89,6.07,6.07,0,0,1-2.26-2.65,10.39,10.39,0,0,1-.83-4.39l2.12,1.58a4.47,4.47,0,0,0,.55,2.25,4.26,4.26,0,0,0,1.49,1.55,4.33,4.33,0,0,0,4.26,0,4.16,4.16,0,0,0,1.48-1.55,4.57,4.57,0,0,0,.54-2.25,4.62,4.62,0,0,0-.54-2.25,4,4,0,0,0-1.48-1.55,4.13,4.13,0,0,0-2.13-.56Zm-4.76,3.69a5.87,5.87,0,0,1,1.06-2,4.72,4.72,0,0,1,1.63-1.25,4.83,4.83,0,0,1,2.07-.44v2a3.82,3.82,0,0,0-1.43.3,4.52,4.52,0,0,0-1.36.84,4.18,4.18,0,0,0-1,1.36,4.24,4.24,0,0,0-.38,1.86h-1A9,9,0,0,1,652.88,108.94Z"
        transform="translate(-12.2 -4.4)" />
    <path class="cls-34"
        d="M666.7,123.48v-18h2.12v18Zm11.47-8.5a5.73,5.73,0,0,1-2.18,2.19,6.09,6.09,0,0,1-3,.77,4.68,4.68,0,0,1-2.65-.77,5,5,0,0,1-1.8-2.19,9.3,9.3,0,0,1,0-6.78,5.07,5.07,0,0,1,1.8-2.18,4.68,4.68,0,0,1,2.65-.77,6.09,6.09,0,0,1,3,.77,5.78,5.78,0,0,1,2.18,2.18,7.42,7.42,0,0,1,0,6.78Zm-1.89-5.76a3.7,3.7,0,0,0-1.51-1.48,4.23,4.23,0,0,0-2.07-.51,3.64,3.64,0,0,0-1.82.51,3.89,3.89,0,0,0-1.48,1.48,5.15,5.15,0,0,0,0,4.75,4,4,0,0,0,1.48,1.48,3.62,3.62,0,0,0,1.82.5,4.23,4.23,0,0,0,2.07-.5,3.77,3.77,0,0,0,1.51-1.48,5.23,5.23,0,0,0,0-4.75Z"
        transform="translate(-12.2 -4.4)" />
    <path class="cls-34"
        d="M681.67,108.32a6.17,6.17,0,0,1,2.26-2.25,6.67,6.67,0,0,1,6.41,0,6.12,6.12,0,0,1,2.24,2.25,6.78,6.78,0,0,1,0,6.54,6.07,6.07,0,0,1-2.24,2.26,6.67,6.67,0,0,1-6.41,0,6.13,6.13,0,0,1-2.26-2.26,6.86,6.86,0,0,1,0-6.54Zm1.85,5.52a4.16,4.16,0,0,0,1.48,1.55,4.31,4.31,0,0,0,4.25,0,4.08,4.08,0,0,0,1.48-1.55,4.57,4.57,0,0,0,.55-2.25,4.63,4.63,0,0,0-.55-2.25,3.88,3.88,0,0,0-1.48-1.55,4.31,4.31,0,0,0-4.25,0,4,4,0,0,0-1.48,1.55,4.62,4.62,0,0,0-.54,2.25A4.57,4.57,0,0,0,683.52,113.84Z"
        transform="translate(-12.2 -4.4)" />
    <path class="cls-34" d="M699,115.56l-2.9,6.6-1.54-.55,2.33-6.84Z" transform="translate(-12.2 -4.4)" />
    <path class="cls-34" d="M422.89,130.88v18.5h-2.24v-18.5Zm-1,7.4h12.68v2.11H421.89Zm13.42-7.4v18.5h-2.25v-18.5Z"
        transform="translate(-12.2 -4.4)" />
    <path class="cls-34"
        d="M440.7,146.88a2.13,2.13,0,0,0,.93.66,3.49,3.49,0,0,0,1.29.23,5.25,5.25,0,0,0,1.88-.32,2.68,2.68,0,0,0,1.28-1,3.25,3.25,0,0,0,.46-1.82l.42,1.32a3.28,3.28,0,0,1-.62,2,3.9,3.9,0,0,1-1.65,1.27,5.86,5.86,0,0,1-2.3.43,5.13,5.13,0,0,1-2.09-.42,3.45,3.45,0,0,1-1.51-1.26,3.56,3.56,0,0,1-.57-2.07,3.7,3.7,0,0,1,.63-2.19,4.05,4.05,0,0,1,1.8-1.39,7,7,0,0,1,2.75-.49,5.91,5.91,0,0,1,2,.3,5.27,5.27,0,0,1,1.33.69,3.83,3.83,0,0,1,.69.62v1.24a6.82,6.82,0,0,0-1.82-.93,6.47,6.47,0,0,0-2.09-.31,4.73,4.73,0,0,0-1.76.29,2.09,2.09,0,0,0-1.38,2.09A1.67,1.67,0,0,0,440.7,146.88Zm-1.37-8.42a9.87,9.87,0,0,1,1.85-1,7.08,7.08,0,0,1,2.8-.5,6.33,6.33,0,0,1,2.44.43,3.81,3.81,0,0,1,1.64,1.26,3.32,3.32,0,0,1,.59,2v8.72h-2.11v-8.72a1.51,1.51,0,0,0-.78-1.39,3.4,3.4,0,0,0-1.78-.46,5.32,5.32,0,0,0-1.59.22,6.4,6.4,0,0,0-1.23.53,9.51,9.51,0,0,0-.8.52Z"
        transform="translate(-12.2 -4.4)" />
    <path class="cls-34"
        d="M453.54,149.38v2.37h-2.25V147.4h15.07v4.35h-2.12v-2.37Zm1.72-.8h-2.38l5.95-12.28,5.94,12.28h-2.38l-3.56-7.71Z"
        transform="translate(-12.2 -4.4)" />
    <path class="cls-34"
        d="M469.3,140a6.07,6.07,0,0,1,2.26-2.24,6.67,6.67,0,0,1,6.41,0,6,6,0,0,1,2.24,2.24,6.78,6.78,0,0,1,0,6.54,6,6,0,0,1-2.24,2.26,6.67,6.67,0,0,1-6.41,0,6.05,6.05,0,0,1-2.26-2.26,6.86,6.86,0,0,1,0-6.54Zm1.85,5.53a4.05,4.05,0,0,0,1.48,1.54,4.25,4.25,0,0,0,4.25,0,4.05,4.05,0,0,0,1.48-1.54,4.9,4.9,0,0,0,0-4.51,3.92,3.92,0,0,0-1.48-1.54,4.31,4.31,0,0,0-4.25,0,3.92,3.92,0,0,0-1.48,1.54,5,5,0,0,0,0,4.51Z"
        transform="translate(-12.2 -4.4)" />
    <path class="cls-34" d="M494,137.22v12.16h-2.11V137.22Zm-.87,4.76h9v2h-9Zm9.72-4.76v12.16h-2.11V137.22Z"
        transform="translate(-12.2 -4.4)" />
    <path class="cls-34"
        d="M508.1,146.88a2.16,2.16,0,0,0,.92.66,3.58,3.58,0,0,0,1.3.23,5.25,5.25,0,0,0,1.88-.32,2.68,2.68,0,0,0,1.28-1,3.25,3.25,0,0,0,.46-1.82l.42,1.32a3.28,3.28,0,0,1-.62,2,3.9,3.9,0,0,1-1.65,1.27,5.86,5.86,0,0,1-2.3.43,5.13,5.13,0,0,1-2.09-.42,3.53,3.53,0,0,1-1.52-1.26,3.63,3.63,0,0,1-.56-2.07,3.7,3.7,0,0,1,.63-2.19,4.05,4.05,0,0,1,1.8-1.39,7,7,0,0,1,2.74-.49,5.93,5.93,0,0,1,2,.3,5.45,5.45,0,0,1,1.33.69,3.83,3.83,0,0,1,.69.62v1.24a7,7,0,0,0-1.82-.93,6.51,6.51,0,0,0-2.09-.31,4.73,4.73,0,0,0-1.76.29,2.09,2.09,0,0,0-1.38,2.09A1.67,1.67,0,0,0,508.1,146.88Zm-1.37-8.42a9.87,9.87,0,0,1,1.85-1,7.08,7.08,0,0,1,2.8-.5,6.33,6.33,0,0,1,2.44.43,3.81,3.81,0,0,1,1.64,1.26,3.39,3.39,0,0,1,.59,2v8.72h-2.11v-8.72a1.51,1.51,0,0,0-.78-1.39,3.42,3.42,0,0,0-1.78-.46,5.27,5.27,0,0,0-1.59.22,6.4,6.4,0,0,0-1.23.53,9.51,9.51,0,0,0-.8.52Z"
        transform="translate(-12.2 -4.4)" />
    <path class="cls-34"
        d="M521.07,140.71a5.11,5.11,0,0,0,.24,1.72,1.67,1.67,0,0,0,.82,1,3.33,3.33,0,0,0,1.58.31v2a6.76,6.76,0,0,1-2.86-.5,2.85,2.85,0,0,1-1.47-1.6,8.17,8.17,0,0,1-.42-2.87v-3.49h2.11Zm2.64,3h4.15v2h-4.15Zm4.76-6.48v12.16h-2.11V137.22Z"
        transform="translate(-12.2 -4.4)" />
    <path class="cls-34"
        d="M533.73,146.88a2.1,2.1,0,0,0,.92.66,3.58,3.58,0,0,0,1.3.23,5.16,5.16,0,0,0,1.87-.32,2.59,2.59,0,0,0,1.28-1,3.17,3.17,0,0,0,.47-1.82l.42,1.32a3.28,3.28,0,0,1-.62,2,4,4,0,0,1-1.65,1.27,5.89,5.89,0,0,1-2.3.43,5.13,5.13,0,0,1-2.09-.42,3.43,3.43,0,0,1-2.09-3.33,3.71,3.71,0,0,1,.64-2.19,4.08,4.08,0,0,1,1.79-1.39,7,7,0,0,1,2.75-.49,5.93,5.93,0,0,1,2,.3,5.45,5.45,0,0,1,1.33.69,3.83,3.83,0,0,1,.69.62v1.24a7,7,0,0,0-1.82-.93,6.51,6.51,0,0,0-2.09-.31,4.69,4.69,0,0,0-1.76.29,2.24,2.24,0,0,0-1,.82,2.28,2.28,0,0,0-.35,1.27A1.68,1.68,0,0,0,533.73,146.88Zm-1.38-8.42a10.56,10.56,0,0,1,1.85-1,7.15,7.15,0,0,1,2.8-.5,6.35,6.35,0,0,1,2.45.43,3.87,3.87,0,0,1,1.64,1.26,3.39,3.39,0,0,1,.59,2v8.72h-2.11v-8.72a1.51,1.51,0,0,0-.78-1.39,3.43,3.43,0,0,0-1.79-.46,5.2,5.2,0,0,0-1.58.22,5.9,5.9,0,0,0-1.23.53c-.34.2-.61.38-.81.52Z"
        transform="translate(-12.2 -4.4)" />
    <path class="cls-34" d="M550.53,137.22v2H543.4v-2Zm-2.51.53v11.63h-2.11V137.75Z"
        transform="translate(-12.2 -4.4)" />
    <path class="cls-34"
        d="M554.76,137.22v12.16h-2.12V137.22Zm-.87,4.6h3.78a5.26,5.26,0,0,1,3.15.91,3.26,3.26,0,0,1,1.28,2.87,3.67,3.67,0,0,1-.58,2.14,3.36,3.36,0,0,1-1.58,1.24,6,6,0,0,1-2.27.4h-3.78v-1.85h3.78a3.22,3.22,0,0,0,1.28-.23,1.69,1.69,0,0,0,.78-.66,2,2,0,0,0,.26-1,1.78,1.78,0,0,0-.58-1.43,2.64,2.64,0,0,0-1.74-.5h-3.78Z"
        transform="translate(-12.2 -4.4)" />
    <path class="cls-34"
        d="M574.65,149.38v2.37h-2.24V147.4h15.06v4.35h-2.12v-2.37Zm1.72-.8H574l6-12.28,5.94,12.28H583.5l-3.56-7.71Z"
        transform="translate(-12.2 -4.4)" />
    <path class="cls-34"
        d="M590.93,142H599a4.3,4.3,0,0,0-.52-1.68,2.92,2.92,0,0,0-1.13-1.13,3.63,3.63,0,0,0-1.78-.41,4.13,4.13,0,0,0-1.93.45,3.37,3.37,0,0,0-1.39,1.28,3.68,3.68,0,0,0-.52,2l0,.79a5.37,5.37,0,0,0,.48,2.38,3.33,3.33,0,0,0,1.34,1.48,4.59,4.59,0,0,0,3.66.22,4.24,4.24,0,0,0,1.26-.76,4.82,4.82,0,0,0,.95-1.15l1.72,1.08a9.07,9.07,0,0,1-1.35,1.62,5.08,5.08,0,0,1-1.8,1.09,7.93,7.93,0,0,1-2.64.38,5.44,5.44,0,0,1-3-.82,5.78,5.78,0,0,1-2.06-2.26,6.93,6.93,0,0,1-.75-3.26q0-.35,0-.66c0-.21,0-.42.08-.63a6.42,6.42,0,0,1,1-2.65,5.58,5.58,0,0,1,2-1.77,6.22,6.22,0,0,1,2.82-.63,5.74,5.74,0,0,1,3,.77,5.22,5.22,0,0,1,2,2.15,7.22,7.22,0,0,1,.71,3.31v.32a1.73,1.73,0,0,1,0,.32H590.93Z"
        transform="translate(-12.2 -4.4)" />
    <path class="cls-34"
        d="M614.89,149.38h-2.11V139.21h-6.21v5.94a5.58,5.58,0,0,1-.44,2.36,2.9,2.9,0,0,1-1.33,1.41,5.06,5.06,0,0,1-2.27.46v-1.93a2,2,0,0,0,1.36-.5,2.34,2.34,0,0,0,.57-1.8v-7.93h10.43Z"
        transform="translate(-12.2 -4.4)" />
    <path class="cls-34"
        d="M620.28,146.88a2.13,2.13,0,0,0,.93.66,3.53,3.53,0,0,0,1.29.23,5.22,5.22,0,0,0,1.88-.32,2.68,2.68,0,0,0,1.28-1,3.17,3.17,0,0,0,.46-1.82l.42,1.32a3.22,3.22,0,0,1-.62,2,3.9,3.9,0,0,1-1.65,1.27,5.86,5.86,0,0,1-2.3.43,5.09,5.09,0,0,1-2.08-.42,3.48,3.48,0,0,1-1.52-1.26,3.56,3.56,0,0,1-.57-2.07,3.7,3.7,0,0,1,.63-2.19,4.11,4.11,0,0,1,1.8-1.39,7,7,0,0,1,2.75-.49,5.87,5.87,0,0,1,2,.3,5.54,5.54,0,0,1,1.34.69,4.05,4.05,0,0,1,.68.62v1.24a6.82,6.82,0,0,0-1.82-.93,6.47,6.47,0,0,0-2.09-.31,4.64,4.64,0,0,0-1.75.29,2.08,2.08,0,0,0-1.39,2.09A1.67,1.67,0,0,0,620.28,146.88Zm-1.37-8.42a10.2,10.2,0,0,1,1.85-1,7.12,7.12,0,0,1,2.8-.5,6.29,6.29,0,0,1,2.44.43,3.81,3.81,0,0,1,1.64,1.26,3.32,3.32,0,0,1,.6,2v8.72h-2.12v-8.72a1.51,1.51,0,0,0-.78-1.39,3.4,3.4,0,0,0-1.78-.46A5.32,5.32,0,0,0,622,139a6.4,6.4,0,0,0-1.23.53,9.51,9.51,0,0,0-.8.52Z"
        transform="translate(-12.2 -4.4)" />
    <path class="cls-34" d="M637.09,137.22v2H630v-2Zm-2.51.53v11.63h-2.12V137.75Z" transform="translate(-12.2 -4.4)" />
    <path class="cls-34"
        d="M641.31,137.22v12.16H639.2V137.22Zm-.87,4.6h3.78a5.31,5.31,0,0,1,3.16.91,3.29,3.29,0,0,1,1.28,2.87,3.75,3.75,0,0,1-.58,2.14,3.39,3.39,0,0,1-1.59,1.24,6,6,0,0,1-2.27.4h-3.78v-1.85h3.78a3.19,3.19,0,0,0,1.28-.23,1.69,1.69,0,0,0,.78-.66,1.94,1.94,0,0,0,.26-1,1.78,1.78,0,0,0-.58-1.43,2.62,2.62,0,0,0-1.74-.5h-3.78Z"
        transform="translate(-12.2 -4.4)" />
    <path class="cls-34"
        d="M660.18,142h8.11a4.3,4.3,0,0,0-.52-1.68,2.92,2.92,0,0,0-1.13-1.13,3.64,3.64,0,0,0-1.79-.41,4.12,4.12,0,0,0-1.92.45,3.37,3.37,0,0,0-1.39,1.28,3.6,3.6,0,0,0-.52,2l0,.79a5.37,5.37,0,0,0,.48,2.38,3.33,3.33,0,0,0,1.34,1.48,4.11,4.11,0,0,0,2.06.5,4.19,4.19,0,0,0,1.6-.28,4.24,4.24,0,0,0,1.26-.76,5.07,5.07,0,0,0,.95-1.15l1.72,1.08a9.07,9.07,0,0,1-1.35,1.62,5.08,5.08,0,0,1-1.8,1.09,7.93,7.93,0,0,1-2.64.38,5.44,5.44,0,0,1-3-.82,5.71,5.71,0,0,1-2.06-2.26,6.93,6.93,0,0,1-.75-3.26q0-.35,0-.66a4.52,4.52,0,0,1,.08-.63,6.42,6.42,0,0,1,1-2.65,5.58,5.58,0,0,1,2-1.77,6.18,6.18,0,0,1,2.81-.63,5.75,5.75,0,0,1,3,.77,5.13,5.13,0,0,1,2,2.15,7.09,7.09,0,0,1,.72,3.31v.32a1.73,1.73,0,0,1,0,.32H660.18Z"
        transform="translate(-12.2 -4.4)" />
    <path class="cls-34" d="M680.1,137.22v2h-4.36v10.17h-2.11V137.22Z" transform="translate(-12.2 -4.4)" />
    <path class="cls-34"
        d="M681.59,140a6.07,6.07,0,0,1,2.26-2.24,6.67,6.67,0,0,1,6.41,0A6,6,0,0,1,692.5,140a6.86,6.86,0,0,1,0,6.54,6,6,0,0,1-2.24,2.26,6.67,6.67,0,0,1-6.41,0,6.05,6.05,0,0,1-2.26-2.26,6.86,6.86,0,0,1,0-6.54Zm1.85,5.53a4.05,4.05,0,0,0,1.48,1.54,4.25,4.25,0,0,0,4.25,0,4.05,4.05,0,0,0,1.48-1.54,4.9,4.9,0,0,0,0-4.51,3.92,3.92,0,0,0-1.48-1.54,4.31,4.31,0,0,0-4.25,0,3.92,3.92,0,0,0-1.48,1.54,5,5,0,0,0,0,4.51Z"
        transform="translate(-12.2 -4.4)" />
    <path class="cls-34" d="M695.89,147.29a1.45,1.45,0,0,1,2,0,1.44,1.44,0,0,1,0,2.05,1.45,1.45,0,1,1-2-2.05Z"
        transform="translate(-12.2 -4.4)" />
    <path class="cls-34"
        d="M630.84,165.55a11.93,11.93,0,0,0-.91,2.84,15.5,15.5,0,0,0-.29,3,15.3,15.3,0,0,0,.29,3,12.08,12.08,0,0,0,.91,2.86h-.9a11.16,11.16,0,0,1-1.05-2.86,14,14,0,0,1-.33-3,14.15,14.15,0,0,1,.33-3,11,11,0,0,1,1.05-2.84Z"
        transform="translate(-12.2 -4.4)" />
    <path class="cls-34"
        d="M638.13,174.91h-1v-7.44h-3.72V172a4.17,4.17,0,0,1-.23,1.43,2.4,2.4,0,0,1-.7,1,1.65,1.65,0,0,1-1.14.4V174a.75.75,0,0,0,.48-.16,1.53,1.53,0,0,0,.35-.48,3.14,3.14,0,0,0,.21-.71,4.94,4.94,0,0,0,.07-.89v-5.28h5.7Z"
        transform="translate(-12.2 -4.4)" />
    <path class="cls-34"
        d="M640.13,171.57h3.68a2,2,0,0,0-.23-.76,1.34,1.34,0,0,0-.52-.51,1.57,1.57,0,0,0-.81-.19,2,2,0,0,0-.88.2,1.62,1.62,0,0,0-.63.59,1.71,1.71,0,0,0-.23.89l0,.36a2.54,2.54,0,0,0,.21,1.08,1.53,1.53,0,0,0,.61.67,2.07,2.07,0,0,0,1.67.1,2.05,2.05,0,0,0,.57-.34,2.49,2.49,0,0,0,.43-.53l.78.5a4.45,4.45,0,0,1-.61.73,2.35,2.35,0,0,1-.82.5,3.72,3.72,0,0,1-1.2.17,2.46,2.46,0,0,1-1.34-.37,2.58,2.58,0,0,1-.93-1,3.11,3.11,0,0,1-.35-1.48c0-.1,0-.2,0-.3a1.43,1.43,0,0,1,0-.29,3,3,0,0,1,.48-1.2,2.49,2.49,0,0,1,.93-.8,2.83,2.83,0,0,1,1.28-.29,2.66,2.66,0,0,1,1.37.35,2.4,2.4,0,0,1,.91,1,3.19,3.19,0,0,1,.32,1.5v.15a.71.71,0,0,1,0,.14h-4.71Z"
        transform="translate(-12.2 -4.4)" />
    <path class="cls-34"
        d="M647.13,169.39v5.52h-1v-5.52Zm-.39,2.32h1.47a1.14,1.14,0,0,0,.39-.06.72.72,0,0,0,.3-.16.64.64,0,0,0,.18-.25.59.59,0,0,0,.07-.29.61.61,0,0,0-.25-.52,1.11,1.11,0,0,0-.69-.2h-1.47v-.84h1.47a2.87,2.87,0,0,1,.95.15,1.54,1.54,0,0,1,.69.48,1.39,1.39,0,0,1,.26.87,1.16,1.16,0,0,1-.26.77,1.59,1.59,0,0,1-.69.46,2.87,2.87,0,0,1-.95.15h-1.47Zm1.59.32a4.13,4.13,0,0,1,1,.12,1.44,1.44,0,0,1,.72.42,1.26,1.26,0,0,1,.26.84,1.5,1.5,0,0,1-.41,1.06,1.83,1.83,0,0,1-1.37.44h-1.83v-.84h1.59a1.19,1.19,0,0,0,.8-.23.71.71,0,0,0,.26-.55.6.6,0,0,0-.07-.3.61.61,0,0,0-.19-.24.74.74,0,0,0-.32-.16,1.65,1.65,0,0,0-.48-.06h-1.59V172Z"
        transform="translate(-12.2 -4.4)" />
    <path class="cls-34" d="M654.43,166.51h5.34v1h-2.16v7.44h-1v-7.44h-2.16Z" transform="translate(-12.2 -4.4)" />
    <path class="cls-34"
        d="M659.49,170.66a2.77,2.77,0,0,1,1-1,2.87,2.87,0,0,1,1.45-.37,2.81,2.81,0,0,1,1.46.37,2.77,2.77,0,0,1,1,1,3.09,3.09,0,0,1,0,3,2.73,2.73,0,0,1-1,1A2.81,2.81,0,0,1,662,175a2.87,2.87,0,0,1-1.45-.37,2.73,2.73,0,0,1-1-1,3.09,3.09,0,0,1,0-3Zm.84,2.51a1.74,1.74,0,0,0,.67.7,1.92,1.92,0,0,0,1.93,0,1.81,1.81,0,0,0,.67-.7,2,2,0,0,0,.25-1,2.07,2.07,0,0,0-.25-1,1.8,1.8,0,0,0-1.64-1,1.83,1.83,0,0,0-1,.25,1.74,1.74,0,0,0-.67.7,2.07,2.07,0,0,0-.25,1A2,2,0,0,0,660.33,173.17Z"
        transform="translate(-12.2 -4.4)" />
    <path class="cls-34"
        d="M671,174.91h-1v-4.62H667.2V173a2.55,2.55,0,0,1-.2,1.07,1.27,1.27,0,0,1-.61.64,2.22,2.22,0,0,1-1,.21V174a.91.91,0,0,0,.62-.22,1.09,1.09,0,0,0,.26-.82v-3.6H671Z"
        transform="translate(-12.2 -4.4)" />
    <path class="cls-34"
        d="M673.52,173.17a1.74,1.74,0,0,0,.67.7,1.82,1.82,0,0,0,1,.26A2.55,2.55,0,0,0,676,174a2.23,2.23,0,0,0,.68-.37,1.4,1.4,0,0,0,.4-.5v1.2a1.74,1.74,0,0,1-.82.52,3.14,3.14,0,0,1-1.1.19,2.79,2.79,0,0,1-2.48-1.4,2.9,2.9,0,0,1,1-4,2.85,2.85,0,0,1,1.45-.37,3.14,3.14,0,0,1,1.1.19,1.74,1.74,0,0,1,.82.52v1.2a1.35,1.35,0,0,0-.4-.51,2.45,2.45,0,0,0-.68-.36,2.55,2.55,0,0,0-.84-.14,1.81,1.81,0,0,0-1,.25,1.74,1.74,0,0,0-.67.7,2.07,2.07,0,0,0-.25,1A2,2,0,0,0,673.52,173.17Z"
        transform="translate(-12.2 -4.4)" />
    <path class="cls-34" d="M681,169.39v.9h-3.24v-.9Zm-1.14.24v5.28h-1v-5.28Z" transform="translate(-12.2 -4.4)" />
    <path class="cls-34"
        d="M681.65,170.66a2.81,2.81,0,0,1,2.48-1.39,2.86,2.86,0,0,1,1.46.37,2.77,2.77,0,0,1,1,1,3.09,3.09,0,0,1,0,3,2.73,2.73,0,0,1-1,1,2.86,2.86,0,0,1-1.46.37,2.82,2.82,0,0,1-1.45-.37,2.75,2.75,0,0,1-1-1,3.09,3.09,0,0,1,0-3Zm.84,2.51a1.87,1.87,0,0,0,3.28,0,2.13,2.13,0,0,0,.24-1,2.17,2.17,0,0,0-.24-1,1.87,1.87,0,0,0-3.28,0,2.17,2.17,0,0,0-.24,1A2.13,2.13,0,0,0,682.49,173.17Z"
        transform="translate(-12.2 -4.4)" />
    <path class="cls-34"
        d="M688.37,175.33l0-1.38,4.57-5-.07,1.38Zm1-1.32-1,1.32v-5.94h1Zm.33-7.44a1,1,0,0,0,.09.37.82.82,0,0,0,.31.37,1.08,1.08,0,0,0,.65.16,1.06,1.06,0,0,0,.64-.16.92.92,0,0,0,.32-.37,1.18,1.18,0,0,0,.08-.37h.85a1.68,1.68,0,0,1-.21.8,1.59,1.59,0,0,1-.63.63,2.33,2.33,0,0,1-2.1,0,1.55,1.55,0,0,1-.64-.63,1.68,1.68,0,0,1-.21-.8Zm3.33,8.34h-1v-4.62l1-1.32Z"
        transform="translate(-12.2 -4.4)" />
    <path class="cls-34"
        d="M694.3,177.31a11.25,11.25,0,0,0,.92-2.86,16.09,16.09,0,0,0,.28-3,16.3,16.3,0,0,0-.28-3,11.11,11.11,0,0,0-.92-2.84h.91a10.64,10.64,0,0,1,1,2.84,14.15,14.15,0,0,1,.33,3,14,14,0,0,1-.33,3,10.78,10.78,0,0,1-1,2.86Z"
        transform="translate(-12.2 -4.4)" />
    <circle class="cls-7" cx="677.58" cy="203.95" r="6.09" />
    <circle class="cls-6" cx="439.09" cy="23" r="3" />
    <path class="cls-1"
        d="M760,6c.25-.37.66-.63,3.81-1.12a34.54,34.54,0,0,1,3.85-.51,16.58,16.58,0,0,1,6.09.88c4.56,1.75,9.39,8.6,6.91,13.24-1.88,3.54-7.41,4.69-11.2,3.32-3.05-1.1-4.76-3.75-6.41-6.28a23.55,23.55,0,0,1-2.43-5.35C759.5,7.16,759.7,6.45,760,6Z"
        transform="translate(-12.2 -4.4)" />
</svg>