<svg width="11" height="12" viewBox="0 0 11 12" fill="none" xmlns="http://www.w3.org/2000/svg" ><path d="M1.85379 4.47449C1.56626 4.00296 0.950921 3.85379 0.479385 4.14132C0.00784898 4.42884 -0.141319 5.04419 0.146208 5.51572L1.85379 4.47449ZM10.786 1.61829C11.1274 1.18422 11.0524 0.555521 10.6183 0.214049C10.1842 -0.127422 9.55552 -0.0523577 9.21405 0.381711L10.786 1.61829ZM0.146208 5.51572C0.793994 6.57807 1.78975 8.15906 2.67123 9.44686C3.10918 10.0867 3.53409 10.6765 3.88097 11.0968C4.04877 11.3001 4.23045 11.5035 4.40684 11.654C4.48807 11.7233 4.62707 11.8332 4.80661 11.9089C4.96004 11.9736 5.44436 12.1308 5.89919 11.7775L4.67224 10.1981C5.08422 9.87802 5.5076 10.034 5.58381 10.0661C5.68613 10.1093 5.73163 10.1553 5.70488 10.1325C5.66531 10.0987 5.57311 10.0051 5.42349 9.82377C5.13555 9.47488 4.75153 8.94524 4.32163 8.31718C3.4674 7.06919 2.49172 5.52068 1.85379 4.47449L0.146208 5.51572ZM5.89919 11.7775C6.13537 11.594 6.23551 11.3592 6.27102 11.271C6.31685 11.1572 6.34668 11.0426 6.36693 10.9563C6.40653 10.7875 6.44676 10.5568 6.48703 10.3411C6.57321 9.87943 6.70095 9.24631 6.95636 8.44491C7.46598 6.84583 8.50183 4.52179 10.786 1.61829L9.21405 0.381711C6.78388 3.47087 5.63402 6.00755 5.05079 7.83761C4.75977 8.75077 4.61429 9.47432 4.521 9.97402C4.47154 10.239 4.44548 10.39 4.41979 10.4995C4.40739 10.5524 4.40483 10.5511 4.41572 10.5241C4.41627 10.5227 4.47891 10.3482 4.67224 10.1981L5.89919 11.7775Z" fill="#34A9BB" fill-opacity="0.6"/></svg>
